<svg width="431" height="84" version="1.1" xmlns="http://www.w3.org/2000/svg" desc="Created with imagetracer.js version 1.2.6"><path fill="rgb(2,21,32)" stroke="rgb(2,21,32)" stroke-width="1" opacity="1" d="M 0.5 0 L 431 0.5 L 430.5 84 L 0 83.5 L 0.5 0 Z M 35 12 Q 22 13 16 19 Q 6 25 4 39 Q 2 54 9 61 Q 16 70 30 73 Q 43 74 51 69 L 53 67 L 53 42 L 51 39 L 34 39 L 31 43 L 32 50 L 38 53 L 38 59 Q 28 61 25 56 L 24 55 L 23 54 L 20 50 Q 18 37 23 33 Q 28 27 38 26 L 42 27 L 47 26 Q 51 24 49 17 L 45 13 L 35 12 Z M 404 12 L 388 18 Q 379 24 375 35 Q 372 53 379 61 Q 386 70 400 73 L 411 73 L 419 71 L 424 67 L 424 43 L 421 39 L 405 39 L 402 42 L 403 51 L 409 54 L 408 59 L 397 57 L 390 48 L 392 35 L 397 31 L 397 30 L 402 27 L 418 26 L 419 24 L 420 21 L 419 17 L 415 13 L 404 12 Z M 68 13 L 65 14 L 62 18 L 62 54 L 66 64 Q 71 71 83 73 Q 95 73 102 67 L 109 54 L 108 17 L 104 13 L 96 14 L 93 18 L 93 55 L 87 59 L 82 58 L 78 55 L 78 18 L 76 15 L 68 13 Z M 142 13 L 117 14 Q 112 16 114 24 Q 117 30 128 27 L 129 69 Q 131 74 140 72 L 144 67 L 143 65 L 144 62 L 143 58 L 144 54 L 143 44 L 144 40 L 143 29 Q 145 25 154 27 Q 159 26 158 18 Q 154 11 142 13 Z M 186 13 L 165 14 L 162 17 L 162 69 L 165 71 L 195 71 Q 199 70 198 63 L 194 58 L 178 58 L 177 51 L 193 50 L 198 45 L 197 40 L 194 36 L 178 36 L 177 28 L 195 27 Q 200 26 198 18 Q 196 11 186 13 Z M 207 13 L 205 14 L 203 17 L 204 70 L 209 72 L 217 71 L 219 67 L 218 65 L 219 61 L 218 59 L 219 47 L 237 71 L 240 72 L 246 71 L 246 70 L 248 69 L 248 18 L 246 15 L 237 13 L 233 17 L 233 42 L 216 21 L 211 16 L 210 15 L 207 13 Z M 277 13 L 275 14 L 272 19 L 272 21 L 273 69 L 278 72 L 286 71 L 288 69 L 289 54 L 303 72 Q 313 74 315 68 L 310 58 L 309 57 L 304 50 L 307 48 L 314 38 Q 316 25 310 21 L 309 20 L 308 19 L 300 14 L 277 13 Z M 327 13 L 322 17 L 322 55 L 325 63 Q 330 71 343 73 L 359 69 Q 366 65 368 56 L 368 17 Q 366 11 357 13 L 352 20 L 352 56 L 351 56 L 350 58 L 347 59 L 341 58 L 337 50 L 338 34 L 337 17 Q 335 12 327 13 Z"/><path fill="rgb(2,21,32)" stroke="rgb(2,21,32)" stroke-width="1" opacity="1" d="M286.5 28L289 32.5 287.5 33 286 30.5 286.5 28zM297.5 28L299 30.5 297 29.5 297.5 28z"/><path fill="rgb(100,49,44)" stroke="rgb(100,49,44)" stroke-width="1" opacity="1" d="M286.5 32L290 33.5 289.5 35 286 33.5 286.5 32zM287.5 35L293 37.5 293.5 39 295.5 38 294.5 40Q287.75 41.75 286 38.5L287.5 35z"/><path fill="rgb(55,72,84)" stroke="rgb(55,72,84)" stroke-width="1" opacity="1" d="M34.5 12L39 12.5 34.5 13 34.5 12zM403.5 12L409 12.5 399.5 14 399.5 13 403.5 12zM28.5 13L33 13.5 28.5 14 28.5 13zM40.5 13L45 13.5 40.5 14 40.5 13zM67.5 13L74 13.5 67.5 14 67.5 13zM97.5 13L104 13.5 97.5 14 97.5 13zM141.5 13L152 13.5 141.5 14 141.5 13zM185.5 13L194 13.5 185.5 14 185.5 13zM236.5 13L244 13.5Q235.69 12.19 233.5 17L236.5 13zM276.5 13L290 13.5 276.5 14 276.5 13zM329.5 13L333 13.5 329.5 14 329.5 13zM356.5 13L364 13.5 355.5 15 356.5 13zM410.5 13L415 13.5 410.5 14 410.5 13zM154.5 14Q159.25 15.25 158 22.5L152.5 27 152.5 26 157 22.5Q157.89 15.25 154.5 14zM274.5 14L273 16.5 272.5 19 272 16.5 274.5 14zM324.5 14L323 16.5 322.5 18 322 16.5 324.5 14zM365.5 14L368 16.5 368 55.5 367 55.5 367 16.5 365.5 14zM48.5 16L49 23.5 41.5 27 37.5 26Q27.62 26.62 23 32.5 17.75 37.25 20 49.5L22 52.5 20 51.5 19 37.5 25.5 29Q30.78 24.78 40.5 25L44.5 26 48 23.5 48.5 16zM211.5 16L225 31.5 218 25.5 211.5 16zM246.5 16L248 17.5 248 68.5 246.5 69 247 67.5 247 17.5 246.5 16zM390.5 16L392 16.5 389.5 18 390.5 16zM62.5 17L63 53.5 62 53.5 62.5 17zM77.5 17L78 53.5 77 53.5 77.5 17zM93.5 17L94 53.5 93 53.5 93.5 17zM197.5 17L198 23.5 193.5 27 193.5 26 197 23.5 197.5 17zM337.5 18L338 33.5 337 33.5 337.5 18zM387.5 18L380 26.5 379.5 28 379 26.5 387.5 18zM352.5 19L353 54.5 352 54.5 352.5 19zM272.5 20L273 66.5 272 66.5 272.5 20zM322.5 20L323 54.5 322 54.5 322.5 20zM310.5 22L313 25.5 312 25.5 310.5 22zM114.5 23L120 26.5 117.5 27 114.5 23zM418.5 24L417.5 26 401.5 27 398.5 29 399.5 27 418.5 24zM123.5 26L129 26.5 128.5 67 127.5 27Q122.5 28 123.5 26zM143.5 26L147 26.5 143.5 28 143.5 26zM6.5 30L7 32.5 5.5 35 5 33.5 6.5 30zM143.5 30L144 39.5 143 39.5 143.5 30zM376.5 32L377 33.5 375.5 37 375 34.5 376.5 32zM176.5 35L193.5 36 197 39.5 193.5 37 177.5 37 176.5 35zM391.5 35L392 36.5 390.5 40 390 37.5 391.5 35zM4.5 38L5 48.5 4 48.5 4.5 38zM38.5 39L48 39.5 38.5 40 38.5 39zM404.5 39L403 41.5 402.5 43 402 41.5 404.5 39zM407.5 39L418 39.5 407.5 40 407.5 39zM420.5 39L424 42.5 424 63.5 423 63.5 423 42.5 420.5 39zM233.5 40L234 41.5 232 42.5 233.5 40zM143.5 44L144 53.5 143 53.5 143.5 44zM216.5 45L221 48.5 217.5 46 216.5 45zM390.5 48L392 50.5 390 49.5 390.5 48zM177.5 49L193 49.5 176.5 51 177.5 49zM375.5 49L379 57.5 377 56.5 375.5 49zM337.5 50L338 53.5 337 53.5 337.5 50zM5.5 51L7 55.5 6 55.5 5.5 51zM36.5 51L39 52.5 37.5 60 30 59.5 38 58.5 37.5 52 36.5 51zM108.5 52L109 53.5 104.5 63 105 61.5 108.5 52zM287.5 53L290 54.5 299 67.5 296 65.5 288.5 54 288 68.5 285.5 71 287 68.5 287.5 53zM366.5 57L367 59.5 358.5 69 365 61.5 366.5 57zM408.5 57L409 59.5 401.5 60 399 58.5 400.5 58 407.5 59 408.5 57zM82.5 58L86.5 59 88.5 58 88.5 59 84.5 60 82.5 58zM143.5 58L144 61.5 143 61.5 143.5 58zM177.5 58L193.5 58 198 62.5 197.5 68Q198.21 60.79 193.5 59L177.5 59 177.5 58zM228.5 58L239.5 71 244 71.5 239.5 72 237 70.5 228.5 58zM323.5 58L325 60.5 323 59.5 323.5 58zM342.5 58L346.5 59 348.5 58 348.5 59 343.5 60 342.5 58zM64.5 59L66 61.5 64 60.5 64.5 59zM379.5 59L386.5 67 391 69.5 389.5 69 379 60.5 379.5 59zM325.5 62L334 69.5 332.5 69 325.5 62zM66.5 63Q70.14 68.86 78 70.5L75.5 71 66.5 63zM129.5 68L134 71.5 132.5 72 129.5 68zM142.5 68L139.5 72 138 71.5 142.5 68zM20.5 69L24 70.5 22.5 71 20.5 69zM48.5 69L47.5 71 45 70.5 48.5 69zM96.5 69L95.5 71 94 70.5 96.5 69zM204.5 69L207 70.5 205.5 71 204.5 69zM356.5 69L355.5 71 353 70.5 356.5 69zM419.5 69L418.5 71 415 70.5 419.5 69zM173.5 70L186 70.5 173.5 71 173.5 70zM392.5 70L397 71.5 395.5 72 392.5 70zM29.5 72L40 72.5 29.5 73 29.5 72zM82.5 72L89 72.5 82.5 73 82.5 72zM342.5 72L348 72.5 342.5 73 342.5 72zM399.5 72L411 72.5 399.5 73 399.5 72z"/><path fill="rgb(236,134,99)" stroke="rgb(236,134,99)" stroke-width="1" opacity="1" d="M289.5 26L292 26.5 294.5 32 296 32.5 296.5 36 298 36.5 294.5 38Q288.42 35.58 288 27.5L289.5 26zM297.5 34L300 34.5 299.5 36 297.5 34z"/><path fill="rgb(127,143,155)" stroke="rgb(127,143,155)" stroke-width="1" opacity="1" d="M206.5 13L212 17.5 207.5 14 204 16.5 203.5 67 203 16.5 206.5 13zM44.5 14L48 15.5 47.5 17 44.5 14zM65.5 14L67 14.5 63.5 17 65.5 14zM74.5 14L77 17.5 76 17.5 74.5 14zM116.5 14L141 14.5 116.5 15 116.5 14zM152.5 14L157 17.5 156.5 19 153.5 15 152.5 14zM164.5 14L185 14.5 163.5 16 164.5 14zM194.5 14L197 17.5 196 17.5 194.5 14zM243.5 14L246 15.5 244.5 15 243.5 14zM275.5 14L274 16.5 275 68.5 273 67.5 273 16.5 275.5 14zM291.5 14L298 14.5 291.5 15 291.5 14zM333.5 14L337 17.5 337 52.5 336 52.5 336 17.5 333.5 14zM396.5 14L399 14.5 394.5 16 394.5 15 396.5 14zM20.5 16L22 16.5 18.5 19 20.5 16zM302.5 16L305 17.5 303.5 17 302.5 16zM418.5 16L419 20.5 418 20.5 418.5 16zM114.5 17Q113.71 23.29 117.5 25L119 25.5 117.5 26Q112.21 24.21 114.5 17zM233.5 17L234 39.5 233 39.5 233.5 17zM246.5 17L247 67.5 246 67.5 246.5 17zM162.5 18L164 68.5 162 67.5 162.5 18zM353.5 18L354 53.5 353 53.5 353.5 18zM196.5 19L197 23.5 194 25.5 196.5 19zM108.5 21L109 51.5 107 52.5 108.5 21zM418.5 22L419 23.5 417 24.5 418.5 22zM33.5 25L37 25.5 33.5 26 33.5 25zM41.5 25L45 25.5 41.5 26 41.5 25zM403.5 25L408 25.5 403.5 26 403.5 25zM129.5 26L130 67.5 129 67.5 129.5 26zM147.5 26L152 26.5 147.5 27 147.5 26zM176.5 26L193 26.5 177 27.5 176.5 35 176.5 26zM142.5 27L143 67.5 142 67.5 142.5 27zM8.5 28L8 29.5 7.5 31 7 29.5 8.5 28zM313.5 31L314 34.5 313 34.5 313.5 31zM193.5 37Q198.25 38.25 197 45.5L193 48.5Q197.25 47.25 196 40.5L193.5 37zM375.5 37L376 48.5 375 48.5 375.5 37zM18.5 39L19 47.5 18 47.5 18.5 39zM34.5 39L38 39.5 32.5 42 34.5 39zM389.5 39L390 47.5 389 47.5 389.5 39zM405.5 39L407 39.5 403.5 42 405.5 39zM50.5 40L53 41.5 53 66.5 51.5 68 52 66.5 52 42.5 50.5 40zM287.5 40L293 40.5 287.5 41 287.5 40zM31.5 43L32 46.5 31 46.5 31.5 43zM402.5 43L403 47.5 402 47.5 402.5 43zM217.5 46L218 67.5 217 67.5 217.5 46zM306.5 46L305.5 48 304 47.5 306.5 46zM177.5 48L190 48.5 176.5 50 177.5 48zM302.5 48L304 50.5 302 49.5 302.5 48zM403.5 49L407 51.5 405.5 52 403.5 49zM390.5 50L397 57.5 391 52.5 390.5 50zM176.5 51L177.5 59 194 59.5 177.5 60Q173.91 57.91 176.5 51zM223.5 52L226 55.5 225 55.5 223.5 52zM409.5 52L410 58.5 409 58.5 409.5 52zM7.5 55L9 57.5 7 56.5 7.5 55zM306.5 55L311 60.5 309 59.5 306.5 55zM323.5 55Q325.42 63.58 332 67.5L325 61.5 323.5 55zM78.5 56L84 59.5 82.5 60 78.5 56zM338.5 56L343 59.5 341.5 59 338.5 56zM195.5 61L197 68.5 195 69.5 196 62.5 195.5 61zM297.5 65L301.5 70 303 70.5 301.5 71 297.5 65zM286.5 68L284.5 71 283 70.5 286.5 68zM313.5 68L311.5 71 310 70.5 313.5 68zM390.5 68L393 69.5 391.5 70 390.5 68zM245.5 69L244.5 71 243 70.5 245.5 69zM165.5 70L173 70.5 165.5 71 165.5 70zM188.5 70L194 70.5 188.5 71 188.5 70zM213.5 70L215 70.5 209.5 72 209.5 71 213.5 70zM27.5 71L32 71.5 27.5 72 27.5 71zM37.5 71L42 71.5 37.5 72 37.5 71zM81.5 71L90 71.5 81.5 72 81.5 71zM134.5 71L138 71.5 134.5 72 134.5 71zM304.5 71L309 71.5 304.5 72 304.5 71zM340.5 71L350 71.5 340.5 72 340.5 71zM397.5 71L404 71.5 397.5 72 397.5 71zM407.5 71L412 71.5 407.5 72 407.5 71z"/><path fill="rgb(160,70,51)" stroke="rgb(160,70,51)" stroke-width="1" opacity="1" d="M287.5 34L289 34.5 286.5 36 287.5 34zM296.5 34L299 35.5 298.5 37 296 35.5 296.5 34z"/><path fill="rgb(246,243,238)" stroke="rgb(246,243,238)" stroke-width="1" opacity="1" d="M36.5 13Q44.75 12.75 48 17.5 49.25 23.75 45.5 25 28.33 22.83 22 31.5 16.67 36.17 18 47.5L25.5 58Q29.5 61.5 38.5 60L39 51.5 33 49.5 32 42.5 34.5 40 49.5 40 52 42.5 52 66.5Q45.55 72.55 32.5 72 17.89 70.61 11 61.5 3.42 54.58 5 38.5 7.52 25.02 17.5 19 24.48 13.48 36.5 13zM405.5 13L414.5 14 418 16.5 419 21.5 416.5 25Q396.52 22.52 391 34.5 387.86 38.86 389 47.5L396.5 58Q400.17 61.33 408.5 60L410 52.5 403 48.5Q401.5 41.5 405.5 40L420.5 40 423 42.5 422.5 67Q415.69 71.69 404.5 72 387.2 70.8 380 59.5 374.14 51.86 376 36.5 379.67 24.17 389.5 18L405.5 13zM67.5 14Q74.5 12.5 76 16.5L77 54.5 80.5 59 87.5 60 94 54.5 94 17.5 97.5 14Q104.75 12.75 107 16.5L108 51.5Q106.28 62.78 98.5 68 92.36 72.36 80.5 71 70.52 68.98 66 61.5L63 53.5 63 17.5 67.5 14zM141.5 14Q152.69 11.81 156 17.5L157 21.5 154.5 25 142 27.5 142 68.5 140.5 70 133.5 71 130 68.5 129.5 26Q118.31 28.19 115 22.5L116.5 15 141.5 14zM185.5 14Q194 12 196 16.5L197 18.5 193.5 26 176 26.5 176.5 37 192.5 37 196 40.5Q197.25 47.75 192.5 49L177.5 48Q173.75 50.25 176 58.5L177.5 60 195 60.5 196 68.5 194.5 70 164.5 70 163 67.5 163 16.5 164.5 15 185.5 14zM206.5 14L215 21.5 232.5 43 234 42.5 234 16.5 235.5 15 242.5 14 246 16.5 246 68.5 244.5 70 240.5 71 235 66.5 230.5 60 229 59.5 217.5 44 216 44.5 217 68.5 208.5 71 204 67.5 204 16.5 206.5 14zM276.5 14L298.5 15 310 22.5Q314.5 27 313 37.5L307.5 46 302 48.5 314 67.5Q311.81 72.31 303.5 71L300 68.5 288.5 52 287 52.5 287 67.5 284.5 70 278.5 71 275 69.5 274 16.5 276.5 14zM287 26L286 40 288 41 296 40 297 38 299 37 300 35 298 34 292 27 287 26zM296 26L295 28 301 33 300 30 296 26zM326.5 14Q334.5 12.5 336 17.5L336 52.5 340.5 59 347.5 60 353 55.5 354 16.5 355.5 15 363.5 14 367 17.5 367 54.5 362.5 64 361 64.5 360.5 66Q354.33 72.83 339.5 71 329.88 69.13 326 61.5L323 54.5 323 16.5 326.5 14z"/></svg>